<svg width="2560" height="1440" viewBox="0 0 2560 1440" fill="none" xmlns="http://www.w3.org/2000/svg">
<g id="1floor 1">
<rect id="152" opacity="0.25" x="549" y="439" width="63" height="105" fill="#5EB92D"/>
<rect id="150" opacity="0.25" x="615" y="439" width="60" height="105" fill="#5EB92D"/>
<rect id="148" opacity="0.25" x="724" y="439" width="92" height="105" fill="#5EB92D"/>
<rect id="146" opacity="0.25" x="816" y="439" width="74" height="105" fill="#5EB92D"/>
<rect id="193" opacity="0.25" x="941" y="585" width="138" height="93" fill="#5EB92D"/>
<rect id="197" opacity="0.25" x="684" y="585" width="141" height="93" fill="#5EB92D"/>
<rect id="199" opacity="0.25" x="549" y="585" width="135" height="93" fill="#5EB92D"/>
<rect id="195" opacity="0.25" x="825" y="585" width="116" height="93" fill="#5EB92D"/>
<rect id="Vaxta" opacity="0.25" x="1173" y="676" width="127" height="93" fill="#4CE4E4"/>
<rect id="144" opacity="0.25" x="890" y="439" width="60" height="105" fill="#5EB92D"/>
<rect id="142" opacity="0.25" x="951" y="439" width="61" height="105" fill="#5EB92D"/>
<rect id="140" opacity="0.25" x="1013" y="439" width="57" height="105" fill="#5EB92D"/>
<rect id="138" opacity="0.25" x="1073" y="439" width="56" height="105" fill="#5EB92D"/>
<rect id="F" opacity="0.25" x="1080" y="585" width="64" height="91" fill="white"/>
<rect id="M" opacity="0.25" x="1144" y="585" width="62" height="91" fill="white"/>
<rect id="M_2" opacity="0.25" x="1985" y="587" width="55" height="91" fill="white"/>
<rect id="F_2" opacity="0.25" x="2041" y="587" width="51" height="91" fill="white"/>
<rect id="Stolovaya" opacity="0.25" x="1410" y="415" width="154" height="129" fill="#4CE4E4"/>
<path id="Garderob" opacity="0.25" d="M1079 676H1172V771V862H1123L1079 828.5V676Z" fill="#4CE4E4"/>
<rect id="Cafe" opacity="0.25" x="1564" y="415" width="154" height="129" fill="#4CE4E4"/>
<rect id="120" opacity="0.25" x="1926" y="431" width="50" height="114" fill="#FFA806"/>
<rect id="118" opacity="0.25" x="1976" y="431" width="55" height="114" fill="#FFA806"/>
<rect id="116" opacity="0.25" x="2031" y="431" width="69" height="114" fill="#FFA806"/>
<rect id="114" opacity="0.25" x="2100" y="431" width="71" height="114" fill="#FFA806"/>
<rect id="112" opacity="0.25" x="2171" y="431" width="66" height="114" fill="#FFA806"/>
<rect id="110" opacity="0.25" x="2237" y="431" width="53" height="114" fill="#FFA806"/>
<rect id="108" opacity="0.25" x="2290" y="431" width="63" height="114" fill="#FFA806"/>
<rect id="106" opacity="0.25" x="2354" y="431" width="64" height="114" fill="#FFA806"/>
<rect id="131" opacity="0.25" x="2371" y="588" width="72" height="84" fill="#FFA806"/>
<rect id="133" opacity="0.25" x="2278" y="588" width="93" height="90" fill="#FFA806"/>
<rect id="135" opacity="0.25" x="2175" y="588" width="101" height="90" fill="#FFA806"/>
<path id="161" opacity="0.25" d="M1701 790L1755 789L1750.66 882H1702.45L1701 790Z" fill="#484AED"/>
<path id="159" opacity="0.25" d="M1758 790L1828.5 792.5L1824 885.5L1753 882L1758 790Z" fill="#484AED"/>
<path id="157" opacity="0.25" d="M1829 792L1899 798.5L1892.71 895L1825 886L1829 792Z" fill="#5EB92D"/>
<path id="155" opacity="0.25" d="M1899 798.5L1966.5 808.5L1950 905L1894.5 895L1899 798.5Z" fill="#5EB92D"/>
<path id="153" opacity="0.25" d="M1966 808.5L2007 816.5L2042 827.5L2016.5 920.5L1949.5 904.5L1966 808.5Z" fill="#5EB92D"/>
<rect id="104" opacity="0.25" x="2418" y="431" width="53" height="114" fill="#FFA806"/>
</g>
</svg>
