<svg width="2560" height="1440" viewBox="0 0 2560 1440" fill="none" xmlns="http://www.w3.org/2000/svg">
<g id="2floor 1">
<rect id="288" opacity="0.25" x="173" y="546" width="94" height="80" fill="#003CFF"/>
<rect id="284" opacity="0.25" x="48" y="546" width="66" height="128" fill="#003CFF"/>
<rect id="290" opacity="0.25" x="267" y="546" width="94" height="80" fill="#003CFF"/>
<rect id="292" opacity="0.25" x="363" y="546" width="94" height="80" fill="#003CFF"/>
<rect id="BZ" opacity="0.25" x="48" y="324" width="499" height="220" fill="#003CFF"/>
<rect id="294" opacity="0.25" x="457" y="546" width="90" height="80" fill="#003CFF"/>
<path id="262" opacity="0.25" d="M492 746H550L545 770.5L536.5 806H492V746Z" fill="#003CFF"/>
<path id="278" opacity="0.25" d="M48 746.5H179.5V771V805.5H59L53.5 778.5L48 746.5Z" fill="#003CFF"/>
<path id="276" opacity="0.25" d="M62 806H179V826.763V856H71.7871L66.8935 833.119L62 806Z" fill="#003CFF"/>
<path id="274" opacity="0.25" d="M69.5 855.5H179V873.763V976.5L119 935L82.5 877L69.5 855.5Z" fill="#003CFF"/>
<rect id="280" opacity="0.25" x="48" y="674" width="131" height="70" fill="#003CFF"/>
<rect id="266" opacity="0.25" x="413" y="808" width="39" height="95" fill="#003CFF"/>
<rect id="MZ" opacity="0.25" x="220" y="746" width="192" height="246" fill="#003CFF"/>
<path id="260" opacity="0.25" d="M492 808H537L530.963 845.882L492 920V900.235V808Z" fill="#003CFF"/>
<rect id="256" opacity="0.25" x="547" y="437" width="67" height="107" fill="#5EB92D"/>
<rect id="254" opacity="0.25" x="616" y="437" width="60" height="107" fill="#5EB92D"/>
<rect id="285" opacity="0.25" x="603" y="584" width="70" height="94" fill="#5EB92D"/>
<rect id="283" opacity="0.25" x="673" y="584" width="75" height="94" fill="#5EB92D"/>
<rect id="281" opacity="0.25" x="750" y="584" width="84" height="94" fill="#5EB92D"/>
<rect id="279" opacity="0.25" x="834" y="584" width="110" height="94" fill="#5EB92D"/>
<rect id="277" opacity="0.25" x="942" y="584" width="138" height="94" fill="#5EB92D"/>
<path id="263" opacity="0.25" d="M1080 677H1303V773L1123.5 862.5L1080 828.5V677Z" fill="#4296E4"/>
<rect id="250" opacity="0.25" x="723" y="438" width="54" height="107" fill="#5EB92D"/>
<rect id="248" opacity="0.25" x="777" y="438" width="60" height="107" fill="#5EB92D"/>
<rect id="246" opacity="0.25" x="837" y="438" width="54" height="107" fill="#5EB92D"/>
<rect id="244" opacity="0.25" x="891" y="438" width="58" height="107" fill="#5EB92D"/>
<rect id="242" opacity="0.25" x="949" y="438" width="60" height="107" fill="#5EB92D"/>
<rect id="240" opacity="0.25" x="1011" y="439" width="62" height="107" fill="#5EB92D"/>
<rect id="238" opacity="0.25" x="1073" y="439" width="53" height="107" fill="#5EB92D"/>
<rect id="234" opacity="0.25" x="1182" y="439" width="54" height="107" fill="#5EB92D"/>
<rect id="236" opacity="0.25" x="1128" y="439" width="54" height="107" fill="#5EB92D"/>
<rect id="228" opacity="0.25" x="1342" y="415" width="192" height="131" fill="#3799E9"/>
<rect id="228a" opacity="0.25" x="1284" y="462" width="58" height="84" fill="#5EB92D"/>
<rect id="F" opacity="0.25" x="1080" y="584" width="63" height="93" fill="white"/>
<rect id="M" opacity="0.25" x="1143" y="584" width="63" height="93" fill="white"/>
<path id="239" opacity="0.25" d="M1516.5 813L1630.5 796.5V885.5L1543 896L1516.5 813Z" fill="#5EB92D"/>
<path id="241" opacity="0.25" d="M1433 830.5L1515.5 812L1541 897L1462 915L1433 830.5Z" fill="#5EB92D"/>
<path id="243" opacity="0.25" d="M1360 852.5L1432.5 832L1461 915L1393 934L1360 852.5Z" fill="#5EB92D"/>
<path id="245" opacity="0.25" d="M1229 908.5L1321 869.5L1353.5 949L1270.5 983.5L1229 908.5Z" fill="#4296E4"/>
<path id="247" opacity="0.25" d="M1119.5 969.5L1228.5 910L1269.5 984L1169 1039L1119.5 969.5Z" fill="#4296E4"/>
<path id="249" opacity="0.25" d="M1026 1033.5L1119.5 970L1168 1039L1081 1099L1026 1033.5Z" fill="#4296E4"/>
<path id="251" opacity="0.25" d="M934 1111.5L1026 1035L1079.5 1099L989 1177L934 1111.5Z" fill="#4296E4"/>
<rect id="224a" opacity="0.25" x="1534" y="415" width="115" height="131" fill="#571616"/>
<rect id="224" opacity="0.25" x="1734" y="415" width="70" height="131" fill="#692EB2"/>
<path id="231" opacity="0.25" d="M1937 804L1994 814L2042.5 827L2016 920.5L1920 900L1937 804Z" fill="#5EB92D"/>
<path id="233" opacity="0.25" d="M1827.5 792L1887.5 798L1937 805L1919.5 899.5L1824 885L1827.5 792Z" fill="#5EB92D"/>
<rect id="218" opacity="0.25" x="1926" y="431" width="78" height="115" fill="#FFA806"/>
<rect id="216" opacity="0.25" x="2004" y="431" width="72" height="115" fill="#FFA806"/>
<rect id="F_2" opacity="0.25" x="2040" y="588" width="53" height="90" fill="white"/>
<rect id="M_2" opacity="0.25" x="1987" y="588" width="53" height="90" fill="white"/>
<path id="235" opacity="0.25" d="M1703 788.5L1827 792L1823.5 885.5L1703 882V788.5Z" fill="#5EB92D"/>
<path id="229" opacity="0.25" d="M1804 678H2040V718.5H2028V788.5L1917 761L1804 751V678Z" fill="#5EB92D"/>
<rect id="214" opacity="0.25" x="2076" y="431" width="72" height="115" fill="#FFA806"/>
<rect id="212" opacity="0.25" x="2148" y="431" width="68" height="115" fill="#FFA806"/>
<rect id="210" opacity="0.25" x="2216" y="431" width="70" height="115" fill="#FFA806"/>
<rect id="208" opacity="0.25" x="2286" y="431" width="61" height="115" fill="#FFA806"/>
<rect id="206" opacity="0.25" x="2347" y="431" width="62" height="115" fill="#FFA806"/>
<rect id="204" opacity="0.25" x="2409" y="431" width="62" height="115" fill="#FFA806"/>
<rect id="215" opacity="0.25" x="2262" y="588" width="106" height="90" fill="#FFA806"/>
</g>
</svg>
