<svg width="2560" height="1440" viewBox="0 0 2560 1440" fill="none" xmlns="http://www.w3.org/2000/svg">
<g id="5floor 1">
<rect id="558" opacity="0.25" x="777" y="438" width="48" height="106" fill="#5EB92D"/>
<rect id="560" opacity="0.25" x="725" y="438" width="52" height="106" fill="#5EB92D"/>
<rect id="564" opacity="0.25" x="616" y="438" width="58" height="106" fill="#5EB92D"/>
<rect id="566" opacity="0.25" x="548" y="438" width="66" height="106" fill="#5EB92D"/>
<rect id="556" opacity="0.25" x="827" y="438" width="62" height="106" fill="#5EB92D"/>
<rect id="554" opacity="0.25" x="891" y="438" width="58" height="106" fill="#5EB92D"/>
<rect id="552" opacity="0.25" x="950" y="438" width="62" height="106" fill="#5EB92D"/>
<rect id="550" opacity="0.25" x="1012" y="438" width="58" height="106" fill="#5EB92D"/>
<rect id="581" opacity="0.25" x="1003" y="583" width="76" height="92" fill="#5EB92D"/>
<rect id="F" opacity="0.25" x="1079" y="583" width="64" height="92" fill="white"/>
<rect id="M" opacity="0.25" x="1143" y="583" width="61" height="92" fill="white"/>
<rect id="M_2" opacity="0.25" x="1983" y="588" width="58" height="89" fill="white"/>
<rect id="F_2" opacity="0.25" x="2041" y="588" width="52" height="89" fill="white"/>
<rect id="583" opacity="0.25" x="927" y="583" width="76" height="92" fill="#5EB92D"/>
<rect id="585" opacity="0.25" x="856" y="583" width="71" height="92" fill="#5EB92D"/>
<rect id="587" opacity="0.25" x="810" y="583" width="46" height="92" fill="#5EB92D"/>
<rect id="589" opacity="0.25" x="755" y="583" width="55" height="92" fill="#5EB92D"/>
<rect id="591" opacity="0.25" x="685" y="583" width="70" height="92" fill="#5EB92D"/>
<rect id="593" opacity="0.25" x="604" y="583" width="81" height="92" fill="#5EB92D"/>
<rect id="550_2" opacity="0.25" x="1070" y="438" width="55" height="106" fill="#5EB92D"/>
<rect id="548" opacity="0.25" x="1127" y="438" width="53" height="106" fill="#5EB92D"/>
<rect id="546" opacity="0.25" x="1182" y="438" width="53" height="106" fill="#5EB92D"/>
<rect id="540" opacity="0.25" x="1343" y="415" width="96" height="129" fill="#692EB2"/>
<rect id="540a" opacity="0.25" x="1285" y="463" width="60" height="81" fill="#692EB2"/>
<rect id="538" opacity="0.25" x="1439" y="415" width="96" height="129" fill="#692EB2"/>
<rect id="536" opacity="0.25" x="1535" y="415" width="95" height="129" fill="#692EB2"/>
<rect id="532" opacity="0.25" x="1630" y="415" width="90" height="129" fill="#692EB2"/>
<rect id="528" opacity="0.25" x="1720" y="415" width="84" height="129" fill="#692EB2"/>
<rect id="522" opacity="0.25" x="1928" y="431" width="53" height="113" fill="#FFA806"/>
<rect id="520" opacity="0.25" x="1981" y="431" width="63" height="113" fill="#FFA806"/>
<rect id="518" opacity="0.25" x="2044" y="431" width="65" height="113" fill="#FFA806"/>
<rect id="516" opacity="0.25" x="2109" y="431" width="64" height="113" fill="#FFA806"/>
<rect id="514" opacity="0.25" x="2173" y="431" width="53" height="113" fill="#FFA806"/>
<rect id="512" opacity="0.25" x="2226" y="431" width="51" height="113" fill="#FFA806"/>
<rect id="510" opacity="0.25" x="2277" y="431" width="53" height="113" fill="#FFA806"/>
<rect id="508" opacity="0.25" x="2330" y="431" width="50" height="113" fill="#FFA806"/>
<rect id="506" opacity="0.25" x="2380" y="431" width="46" height="113" fill="#FFA806"/>
<rect id="504" opacity="0.25" x="2427" y="431" width="44" height="113" fill="#FFA806"/>
<rect id="515" opacity="0.25" x="2443" y="588" width="68" height="83" fill="#FFA806"/>
<rect id="517" opacity="0.25" x="2374" y="588" width="68" height="83" fill="#FFA806"/>
<path id="519" opacity="0.25" d="M2173 588H2259V912L2089 832V718.5H2173V588Z" fill="#692EB2"/>
<path id="535" opacity="0.25" d="M1935 803.5L2041 826.5L2015.5 920.5L1920 900L1935 803.5Z" fill="#0051FF"/>
<path id="537" opacity="0.25" d="M1853 793.5L1935 803.5L1920 897L1848.5 888L1853 793.5Z" fill="#FFA806"/>
<path id="539" opacity="0.25" d="M1777 790L1851 793.979L1848.77 887L1777 880.533V790Z" fill="#FFA806"/>
<path id="533" opacity="0.25" d="M1805 677L2026.5 679V786.5L1968.5 771.5L1909.5 760L1855.5 754L1805 751V677Z" fill="#692EB2"/>
<path id="545" opacity="0.25" d="M1544.5 806.5L1632 795V885.5L1558 894L1544.5 806.5Z" fill="#692EB2"/>
<path id="543" opacity="0.25" d="M1632 795.5L1702.5 790.5V881L1632 885.5V795.5Z" fill="#692EB2"/>
<path id="547" opacity="0.25" d="M1462.5 824.5L1542 807L1558.5 895L1486 908L1462.5 824.5Z" fill="#692EB2"/>
<path id="551" opacity="0.25" d="M1383 847L1461.5 825L1486 908.5L1415.5 927.5L1383 847Z" fill="#692EB2"/>
<path id="553" opacity="0.25" d="M1321 868.5L1381 847L1415.5 928.5L1353 949.5L1321 868.5Z" fill="#692EB2"/>
<path id="555" opacity="0.25" d="M1243 902L1321 869L1352.5 949.5L1284.5 977.5L1243 902Z" fill="#5EB92D"/>
<path id="557" opacity="0.25" d="M1169.5 940L1242.5 903L1283.5 978L1215 1012.5L1169.5 940Z" fill="#5EB92D"/>
<path id="559" opacity="0.25" d="M1093 986L1169 940.5L1214.5 1013L1142.77 1055.4L1093 986Z" fill="#692EB2"/>
<path id="561" opacity="0.25" d="M1013 1043L1092.5 986.5L1142 1056.5L1068 1110L1013 1043Z" fill="#692EB2"/>
<path id="563" opacity="0.25" d="M934 1110.5L1013.5 1043.5L1067.5 1110.5L988.5 1178L934 1110.5Z" fill="#692EB2"/>
</g>
</svg>
