<svg width="2560" height="1440" viewBox="0 0 2560 1440" fill="none" xmlns="http://www.w3.org/2000/svg">
<rect x="725" y="439" width="64" height="105" fill="#F42B19" fill-opacity="0.25"/>
<rect x="789" y="439" width="77" height="105" fill="#F42B19" fill-opacity="0.25"/>
<rect x="866" y="439" width="74" height="105" fill="#F42B19" fill-opacity="0.25"/>
<rect x="940" y="439" width="80" height="105" fill="#F42B19" fill-opacity="0.25"/>
<rect x="1021" y="439" width="84" height="105" fill="#5EB92D" fill-opacity="0.25"/>
<rect x="1285" y="463" width="57" height="81" fill="#424FE2" fill-opacity="0.25"/>
<rect x="1342" y="417" width="108" height="127" fill="#424FE2" fill-opacity="0.25"/>
<rect x="1453" y="417" width="101" height="127" fill="#5EB92D" fill-opacity="0.25"/>
<rect x="1557" y="417" width="122" height="127" fill="#5EB92D" fill-opacity="0.25"/>
<rect x="1679" y="417" width="124" height="127" fill="#5EB92D" fill-opacity="0.25"/>
<rect x="1806" y="464" width="75" height="80" fill="#F42B19" fill-opacity="0.25"/>
<rect x="1928" y="431" width="56" height="113" fill="#F42B19" fill-opacity="0.25"/>
<rect x="1985" y="431" width="58" height="113" fill="#F42B19" fill-opacity="0.25"/>
<rect x="2043" y="431" width="59" height="113" fill="#F42B19" fill-opacity="0.25"/>
<rect x="2103" y="431" width="60" height="113" fill="#F42B19" fill-opacity="0.25"/>
<rect x="2163" y="431" width="63" height="113" fill="#F42B19" fill-opacity="0.25"/>
<rect x="2227" y="431" width="63" height="113" fill="#F42B19" fill-opacity="0.25"/>
<rect x="2291" y="431" width="68" height="113" fill="#F42B19" fill-opacity="0.25"/>
<rect x="2359" y="431" width="59" height="113" fill="#F42B19" fill-opacity="0.25"/>
<rect x="2418" y="431" width="53" height="113" fill="#F42B19" fill-opacity="0.25"/>
<rect x="2455" y="587" width="56" height="84" fill="#F42B19" fill-opacity="0.25"/>
<rect x="2387" y="588" width="68" height="83" fill="#F42B19" fill-opacity="0.25"/>
<rect x="2323" y="587" width="63" height="90" fill="#F42B19" fill-opacity="0.25"/>
<rect x="2258" y="587" width="63" height="90" fill="#F42B19" fill-opacity="0.25"/>
<rect x="2193" y="587" width="63" height="90" fill="#F42B19" fill-opacity="0.25"/>
<rect x="2143" y="587" width="50" height="90" fill="#F42B19" fill-opacity="0.25"/>
<rect x="2093" y="587" width="50" height="90" fill="#F42B19" fill-opacity="0.25"/>
<rect x="2043" y="587" width="50" height="90" fill="#F42B19" fill-opacity="0.25"/>
<rect x="1985" y="587" width="58" height="90" fill="white" fill-opacity="0.25"/>
<rect x="1934" y="587" width="51" height="90" fill="white" fill-opacity="0.25"/>
<rect x="1003" y="585" width="75" height="90" fill="#5EB92D" fill-opacity="0.25"/>
<rect x="1078" y="585" width="65" height="90" fill="white" fill-opacity="0.25"/>
<rect x="1144" y="585" width="60" height="90" fill="white" fill-opacity="0.25"/>
<rect x="928" y="585" width="75" height="90" fill="#5EB92D" fill-opacity="0.25"/>
<rect x="856" y="585" width="69" height="90" fill="#F42B19" fill-opacity="0.25"/>
<rect x="768" y="585" width="88" height="90" fill="#5EB92D" fill-opacity="0.25"/>
<rect x="686" y="585" width="78" height="90" fill="#5EB92D" fill-opacity="0.25"/>
<rect x="604" y="585" width="79" height="90" fill="#5EB92D" fill-opacity="0.25"/>
</svg>
